HIERARCHY
ROOT SimulationBone
{
	OFFSET 0.000000 0.000000 0.000000
	CHANNELS 6 Xposition Yposition Zposition Zrotation Yrotation Xrotation 
	JOINT Hips
	{
		OFFSET 0.000000 0.000000 0.000000
		CHANNELS 6 Xposition Yposition Zposition Zrotation Yrotation Xrotation 
		JOINT LeftUpLeg
		{
			OFFSET 0.103458 1.857831 10.548505
			CHANNELS 3 Zrotation Yrotation Xrotation
			JOINT LeftLeg
			{
				OFFSET 43.500000 -0.000031 0.000002
				CHANNELS 3 Zrotation Yrotation Xrotation
				JOINT LeftFoot
				{
					OFFSET 42.372200 0.000023 0.000003
					CHANNELS 3 Zrotation Yrotation Xrotation
					JOINT LeftToe
					{
						OFFSET 17.299997 -0.000001 -0.000010
						CHANNELS 3 Zrotation Yrotation Xrotation
						End Site
						{
							OFFSET 0.000000 0.000000 0.000000
						}
					}
				}
			}
		}
		JOINT RightUpLeg
		{
			OFFSET 0.103457 1.857828 -10.548510
			CHANNELS 3 Zrotation Yrotation Xrotation
			JOINT RightLeg
			{
				OFFSET 43.500046 -0.000015 0.000002
				CHANNELS 3 Zrotation Yrotation Xrotation
				JOINT RightFoot
				{
					OFFSET 42.372261 -0.000008 0.000023
					CHANNELS 3 Zrotation Yrotation Xrotation
					JOINT RightToe
					{
						OFFSET 17.299990 -0.000007 -0.000002
						CHANNELS 3 Zrotation Yrotation Xrotation
						End Site
						{
							OFFSET 0.000000 0.000000 0.000000
						}
					}
				}
			}
		}
		JOINT Spine
		{
			OFFSET 6.901967 -2.603726 -0.000001
			CHANNELS 3 Zrotation Yrotation Xrotation
			JOINT Spine1
			{
				OFFSET 12.588100 -0.000009 -0.000003
				CHANNELS 3 Zrotation Yrotation Xrotation
				JOINT Spine2
				{
					OFFSET 12.343202 0.000008 0.000008
					CHANNELS 3 Zrotation Yrotation Xrotation
					JOINT Neck
					{
						OFFSET 25.832897 -0.000015 -0.000004
						CHANNELS 3 Zrotation Yrotation Xrotation
						JOINT Head
						{
							OFFSET 11.766609 0.000013 -0.000006
							CHANNELS 3 Zrotation Yrotation Xrotation
							End Site
							{
								OFFSET 0.000000 0.000000 0.000000
							}
						}
					}
					JOINT LeftShoulder
					{
						OFFSET 19.745911 -1.480373 6.000098
						CHANNELS 3 Zrotation Yrotation Xrotation
						JOINT LeftArm
						{
							OFFSET 11.284123 -0.000007 -0.000032
							CHANNELS 3 Zrotation Yrotation Xrotation
							JOINT LeftForeArm
							{
								OFFSET 33.000050 0.000005 0.000031
								CHANNELS 3 Zrotation Yrotation Xrotation
								JOINT LeftHand
								{
									OFFSET 25.200008 0.000017 0.000013
									CHANNELS 3 Zrotation Yrotation Xrotation
									End Site
									{
										OFFSET 0.000000 0.000000 0.000000
									}
								}
							}
						}
					}
					JOINT RightShoulder
					{
						OFFSET 19.746092 -1.480379 -6.000077
						CHANNELS 3 Zrotation Yrotation Xrotation
						JOINT RightArm
						{
							OFFSET 11.284136 -0.000017 -0.000017
							CHANNELS 3 Zrotation Yrotation Xrotation
							JOINT RightForeArm
							{
								OFFSET 33.000099 0.000019 0.000015
								CHANNELS 3 Zrotation Yrotation Xrotation
								JOINT RightHand
								{
									OFFSET 25.199780 0.000140 0.000408
									CHANNELS 3 Zrotation Yrotation Xrotation
									End Site
									{
										OFFSET 0.000000 0.000000 0.000000
									}
								}
							}
						}
					}
				}
			}
		}
	}
}
MOTION
Frames: 14
Frame Time: 0.016667
-283.488334 0.000000 -83.181415 0.000000 93.231903 0.000000 -7.380771 85.877243 -0.198474 82.542612 -0.849785 -178.639069 135.870780 0.318498 -175.118428 -14.944831 -2.291900 -2.304486 69.073354 1.043562 -2.111685 21.454553 0.003091 0.000000 -177.024747 0.638701 173.604721 -27.567209 2.825691 3.411387 90.430556 -2.619918 -1.131226 21.454560 -0.003109 -0.000020 9.547468 0.178533 2.436789 9.085671 0.165206 4.879982 8.768834 0.194784 4.878900 0.892811 -8.573132 -10.921176 -22.894985 10.439622 -17.216033 -156.582604 -78.201775 -25.379014 14.512156 50.226102 44.852352 -52.256622 -16.183945 1.903624 10.087716 1.199216 19.873491 -177.923819 76.297292 3.578253 -33.602774 -47.557045 -3.380161 -81.009758 11.117098 -2.726733 -1.755420 0.558767 -31.885972 
-283.802738 0.000000 -85.813056 0.000000 93.097515 0.000000 -7.381687 85.668912 -0.288585 82.472902 -0.917780 -179.019888 136.035493 0.127668 -176.112420 -14.654787 -2.623808 -3.478435 70.192726 1.716187 -2.700001 21.454549 0.003097 0.000002 -174.735502 1.181096 173.037941 -25.717300 3.212804 3.413996 88.354788 -2.712468 -1.409008 21.454562 -0.003116 -0.000017 9.464700 0.063679 2.555659 8.915059 -0.069672 5.108532 8.598345 -0.038732 5.108872 -0.332612 -9.721035 -10.835865 -22.034668 10.706579 -17.409140 -155.356998 -78.088643 -26.629104 15.990184 49.112010 45.658404 -51.057233 -16.116383 1.856158 9.758071 1.057512 19.795788 -177.757082 76.951339 3.757477 -35.319919 -47.948835 -2.249793 -80.186130 11.577532 -2.724462 -1.649896 0.055653 -31.334030 
-284.124282 0.000000 -88.389625 0.000000 93.018924 0.000000 -7.255383 85.343513 -0.383756 82.606975 -1.057281 -179.253035 136.229160 0.089901 -178.361087 -16.321925 -2.306443 -3.552745 70.221208 1.152244 -4.546170 21.454551 0.003095 0.000001 -172.730512 1.743705 172.446062 -25.008316 3.744356 3.551096 86.235966 -2.848595 -1.357012 21.454563 -0.003119 -0.000016 9.380638 -0.072292 2.625087 8.740684 -0.342579 5.237139 8.424036 -0.310867 5.239117 -0.744125 -10.349004 -10.743326 -21.977030 10.780386 -17.482298 -153.529004 -78.025405 -28.491682 17.143885 48.112285 46.278048 -49.719449 -16.180814 1.819918 9.642578 1.193296 19.780549 -177.486618 77.239865 4.037225 -36.559481 -48.556418 -1.256595 -79.232803 12.006106 -2.711404 -1.393162 0.078301 -30.879356 
-284.451863 0.000000 -90.914670 0.000000 92.993401 0.000000 -7.045335 84.969019 -0.486577 82.887802 -1.295791 -179.493181 136.559397 0.172449 178.796477 -18.960187 -1.655042 -3.077908 69.206984 0.188333 -6.194748 21.454553 0.003089 -0.000001 -171.078462 2.342219 172.060509 -25.315922 4.197440 3.626165 84.047003 -2.940127 -1.304202 21.454561 -0.003117 -0.000017 9.301058 -0.235331 2.668572 8.573975 -0.667622 5.312373 8.257352 -0.635450 5.316296 -0.765121 -10.534496 -10.625363 -22.240123 10.684502 -17.392259 -151.393148 -77.935037 -30.668509 17.985859 47.251658 46.606614 -48.225117 -16.301785 1.782681 9.814217 1.402746 19.721198 -177.127426 77.262543 4.403806 -37.421955 -49.346961 -0.400718 -78.137090 12.465035 -2.695114 -1.125114 0.393872 -30.559437 
-284.784378 0.000000 -93.391740 0.000000 93.018275 0.000000 -6.795023 84.613403 -0.599050 83.260000 -1.659792 -179.895737 137.133218 0.349305 176.023291 -21.580333 -0.994872 -2.585661 67.123745 -0.303700 -6.186816 21.454555 0.003086 -0.000002 -169.844156 2.980092 172.112134 -26.518890 4.347036 3.446716 81.761311 -2.923886 -1.585363 21.454560 -0.003111 -0.000018 9.231635 -0.431331 2.709593 8.425957 -1.058661 5.380747 8.109334 -1.026064 5.387014 -0.821786 -10.353570 -10.447311 -22.342966 10.444737 -17.093221 -149.282702 -77.747963 -32.822611 18.528750 46.554736 46.538186 -46.556911 -16.403387 1.735615 10.345831 1.483061 19.512244 -176.696393 77.119005 4.841637 -38.000631 -50.283650 0.310497 -76.885656 13.016823 -2.680424 -0.990993 0.771781 -30.414083 
-285.120724 0.000000 -95.824384 0.000000 93.090927 0.000000 -6.540050 84.321797 -0.716758 83.674522 -2.161684 179.487651 137.955140 0.612499 173.935252 -23.572821 -0.666814 -2.460384 64.236772 0.399074 -3.746558 21.454553 0.003088 -0.000001 -169.120860 3.645957 172.799225 -28.624001 4.012720 2.879770 79.406416 -2.732665 -2.271812 21.454558 -0.003103 -0.000019 9.175328 -0.658846 2.752329 8.302550 -1.513292 5.450724 7.985899 -1.480257 5.459725 -1.212859 -9.935666 -10.192152 -21.969761 10.116287 -16.597560 -147.614839 -77.411556 -34.531794 18.766961 46.029022 46.028222 -44.664725 -16.446069 1.677824 11.224805 1.280598 19.030385 -176.227438 76.905782 5.317577 -38.374490 -51.335804 0.857240 -75.462162 13.701690 -2.667682 -1.081349 1.120800 -30.389841 
-285.459798 0.000000 -98.216150 0.000000 93.208782 0.000000 -6.284625 84.047974 -0.810363 84.094514 -2.766566 179.022720 138.601941 1.007090 172.959774 -25.787577 -0.876720 -2.669299 62.090920 1.797932 -0.583846 21.454551 0.003092 -0.000000 -169.132546 4.292878 174.192104 -32.163445 3.229773 1.974237 77.234883 -2.155561 -2.368482 21.454558 -0.003101 -0.000019 9.124971 -0.887317 2.723870 8.192165 -1.965062 5.378851 7.875387 -1.932441 5.390575 -1.730556 -9.632346 -9.915380 -21.455077 9.887421 -16.135221 -146.996391 -76.910876 -35.178893 18.627870 45.617340 45.287107 -42.362349 -16.537462 1.622140 12.094857 0.825388 18.094588 -175.835284 76.707445 5.715621 -38.579834 -52.507850 1.182443 -73.841133 14.469817 -2.651648 -1.253380 1.906257 -30.047852 
-285.800497 0.000000 -100.570589 0.000000 93.369302 0.000000 -6.014442 83.755705 -0.852419 84.517313 -3.395808 179.047574 138.766027 1.512180 173.185069 -29.072539 -1.652761 -2.999782 62.017688 2.931228 1.555248 21.454550 0.003093 0.000000 -169.994959 4.861414 176.196826 -37.477006 2.085476 0.908541 75.365006 -1.025167 -1.019348 21.454560 -0.003112 -0.000016 9.080555 -1.079516 2.566726 8.098436 -2.335832 5.052649 7.781398 -2.305160 5.066613 -2.108129 -9.714428 -9.671368 -21.182403 9.899261 -15.900109 -147.717091 -76.300306 -34.464901 18.026410 45.343439 44.436110 -39.443297 -16.736666 1.564193 12.587885 0.160778 16.547955 -175.598146 76.542332 5.956000 -38.594531 -53.763516 1.208634 -72.001067 15.270965 -2.629489 -1.344192 3.507050 -28.999923 
-286.141717 0.000000 -102.891248 0.000000 93.569977 0.000000 -5.671537 83.540108 -0.847570 85.096625 -3.820665 179.367652 139.004143 1.866107 173.542744 -32.846187 -2.448284 -2.988813 63.640143 3.383766 2.750636 21.454550 0.003094 0.000000 -171.262130 5.163090 178.209252 -43.594942 0.797438 0.090198 73.059671 0.231395 1.047870 21.454562 -0.003121 -0.000012 9.078399 -1.200069 2.362111 8.094126 -2.562223 4.635655 7.776821 -2.534061 4.650997 -2.328938 -9.895932 -9.474435 -21.103982 9.933886 -15.755153 -149.115581 -75.877960 -33.051535 16.895726 45.625646 42.981772 -35.768716 -16.758048 1.466691 12.620152 -0.789263 14.366282 -175.421019 76.173311 6.133199 -38.213982 -54.869407 0.818744 -69.944490 16.143606 -2.604570 -1.414056 5.392362 -27.449928 
-286.482356 0.000000 -105.181676 0.000000 93.808315 0.000000 -5.217938 83.500135 -0.814274 85.957794 -3.878393 179.688813 139.909422 1.866571 173.018338 -36.284197 -2.688935 -2.361846 66.208366 3.099089 3.412808 21.454550 0.003096 0.000000 -172.539118 5.039830 179.624241 -49.515091 -0.324638 -0.191245 69.820481 1.122905 2.829630 21.454560 -0.003117 -0.000008 9.145066 -1.233300 2.200831 8.230131 -2.619812 4.309485 7.912659 -2.593630 4.325196 -2.446947 -9.826675 -9.313748 -21.058643 9.746126 -15.503973 -150.642940 -75.882734 -31.492013 15.169954 46.754859 40.391178 -31.457273 -16.333624 1.336336 12.356359 -2.023377 11.754131 -175.188844 75.417423 6.363144 -37.314624 -55.636500 -0.065294 -67.642564 17.123983 -2.576709 -1.547671 7.018632 -25.601279 
-286.821310 0.000000 -107.445423 0.000000 94.081838 0.000000 -4.739062 83.618721 -0.797738 86.930116 -3.830837 179.843451 141.423137 1.777896 171.948851 -38.963947 -2.483365 -1.525788 69.028596 2.502348 3.768432 21.454551 0.003096 0.000001 -174.117368 4.779498 -179.720118 -55.295691 -1.105905 -0.042990 67.200441 1.478693 3.798428 21.454557 -0.003108 -0.000008 9.234896 -1.241910 2.073598 8.412583 -2.631114 4.052455 8.094998 -2.606491 4.068254 -2.562529 -9.459192 -9.098445 -20.854719 9.352682 -15.035181 -152.280322 -76.051542 -29.815481 13.039209 48.197878 36.848627 -27.563502 -15.629872 1.224968 12.597474 -3.036802 9.681754 -174.811916 74.565315 6.740979 -36.302670 -56.270269 -1.296985 -64.920763 18.149216 -2.538748 -1.540694 8.683383 -23.031898 
-287.157477 0.000000 -109.686038 0.000000 94.388071 0.000000 -4.327584 83.871132 -0.833462 87.801830 -3.937641 179.740587 143.350630 1.889372 170.989726 -40.605960 -2.157795 -0.935921 71.530648 2.047453 4.001590 21.454552 0.003092 0.000001 -176.331521 4.667186 -179.797157 -61.097734 -1.492266 0.368006 66.749584 1.198089 3.742475 21.454552 -0.003106 -0.000014 9.293751 -1.282067 1.948190 8.532155 -2.704146 3.797570 8.214450 -2.681049 3.813820 -2.744890 -8.884110 -8.740898 -20.375931 8.865463 -14.317134 -153.998165 -76.053741 -28.061338 10.854882 49.379049 32.912714 -25.117731 -14.910927 1.140832 13.849116 -3.330247 9.122467 -174.238450 73.954642 7.323341 -35.597157 -57.014477 -2.692412 -61.611335 19.113152 -2.477834 -1.109728 10.688064 -19.362802 
-287.489753 0.000000 -111.907068 0.000000 94.724539 0.000000 -3.984882 84.317970 -0.885386 88.494386 -4.040182 179.501839 145.622965 2.158905 170.685785 -41.111307 -2.006756 -0.726452 73.542401 1.854756 4.130786 21.454553 0.003087 0.000001 -179.064064 4.510800 179.785605 -66.513030 -1.643559 1.014834 67.889238 0.473398 3.130240 21.454551 -0.003107 -0.000019 9.304126 -1.304603 1.801211 8.555933 -2.738690 3.502011 8.238105 -2.717359 3.518477 -2.897523 -8.445415 -8.243086 -19.827016 8.530672 -13.538876 -155.729513 -75.795246 -26.298702 8.875059 50.277418 29.470599 -24.176874 -14.372338 1.089509 15.063304 -3.121588 10.367335 -173.563986 73.640288 8.012564 -35.149546 -57.830274 -4.139250 -57.725350 19.835530 -2.376078 -0.215044 12.576906 -15.110258 
-287.817035 0.000000 -114.112064 0.000000 95.088761 0.000000 -3.695074 85.003923 -0.906951 88.975883 -3.930641 179.280598 148.185261 2.425153 171.329885 -40.515794 -2.194921 -0.883899 75.022710 1.914680 4.143614 21.454551 0.003086 0.000000 177.892437 4.088710 179.483186 -71.076798 -1.752925 1.910110 69.537447 -0.420701 2.536880 21.454555 -0.003106 -0.000018 9.260803 -1.251775 1.619202 8.475011 -2.618664 3.143195 8.157079 -2.599495 3.158945 -2.919277 -8.386283 -7.654826 -19.401649 8.510123 -12.876204 -157.272994 -75.322241 -24.730570 7.205878 51.082919 27.329925 -24.464047 -14.150159 1.080031 15.117871 -2.753661 13.195298 -172.902831 73.555552 8.690209 -34.743032 -58.591854 -5.599388 -53.413106 20.157813 -2.241137 1.061785 13.814302 -10.918195 
